<svg xmlns="http://www.w3.org/2000/svg" width="720" height="420" viewBox="0 0 720 420">
<rect width="720" height="420" rx="28" fill="#F5F8FC"/>
<rect x="28" y="28" width="664" height="364" rx="22" fill="#FFFFFF" stroke="#DCE6F2"/>
<rect x="54" y="56" width="190" height="22" rx="8" fill="#D6E5F7"/>
<rect x="54" y="98" width="138" height="78" rx="16" fill="#E8F1FC"/>
<rect x="210" y="98" width="138" height="78" rx="16" fill="#EAF7F4"/>
<rect x="366" y="98" width="138" height="78" rx="16" fill="#FFF3DF"/>
<rect x="522" y="98" width="138" height="78" rx="16" fill="#F0EAFB"/>
<path d="M70 324 C126 280, 168 300, 214 236 S315 276, 365 214 S470 252, 526 182 S612 210, 650 138" fill="none" stroke="#2267D8" stroke-width="8" stroke-linecap="round"/>
<line x1="70" y1="336" x2="650" y2="336" stroke="#D7E2EF" stroke-width="2"/>
<circle cx="214" cy="236" r="8" fill="#2267D8"/><circle cx="365" cy="214" r="8" fill="#2267D8"/><circle cx="526" cy="182" r="8" fill="#2267D8"/>
</svg>